<?xml version="1.0" encoding="UTF-8"?><svg id="_图层_1" xmlns="http://www.w3.org/2000/svg" viewBox="0 0 230.6 100.28"><defs><style>.cls-1{stroke:#090723;stroke-miterlimit:10;stroke-width:5px;}.cls-1,.cls-2{fill:#fff;}.cls-3{fill:#ff9427;fill-rule:evenodd;}.cls-3,.cls-2{stroke-width:0px;}</style></defs><path class="cls-1" d="m103.9,97.66H2.5V5.5h101.4v92.16Zm-18.6-12.96V18.46H20.98v66.24h64.32Z"/><path class="cls-1" d="m118.06,55.78h72.84v-5.52h18.48v5.52h18.72v13.2h-18.72v28.8h-33.6v-11.16h15.12v-17.64h-72.84v-13.2Zm83.52-25.32h-78.84v-10.08h78.84v-5.76h-81.24V2.5h99.72v45.96h-99.72v-12.12h81.24v-5.88Zm-46.92,43.44l11.52,23.76h-19.2l-11.52-23.76h19.2Z"/><text/><path class="cls-3" d="m76.6,44.31c0-12.84-10.36-23.25-23.2-23.25s-23.2,10.41-23.2,23.25c0,0-.78,12.92,23.2,36.9,23.98-23.98,23.2-36.9,23.2-36.9"/><circle class="cls-2" cx="53.4" cy="40.66" r="12.79"/></svg>