<svg width="26" height="24" viewBox="0 0 26 24" fill="none" xmlns="http://www.w3.org/2000/svg">
<g opacity="0.5">
<mask id="path-1-outside-1_2899_5185" maskUnits="userSpaceOnUse" x="0" y="2" width="27" height="19" fill="black">
<rect fill="white" y="2" width="27" height="19"/>
<path fill-rule="evenodd" clip-rule="evenodd" d="M25.0007 8.52175L12.9814 19.9999L1.00011 8.52175H1L1.00005 8.5217L1 8.52165H1.0001L6.42666 3H19.4418L25.0007 8.52165H25.0008L25.0008 8.5217L25.0008 8.52175H25.0007Z"/>
</mask>
<path fill-rule="evenodd" clip-rule="evenodd" d="M25.0007 8.52175L12.9814 19.9999L1.00011 8.52175H1L1.00005 8.5217L1 8.52165H1.0001L6.42666 3H19.4418L25.0007 8.52165H25.0008L25.0008 8.5217L25.0008 8.52175H25.0007Z" fill="#B8B8B8"/>
<path d="M25.0007 8.52175V7.52175C24.7435 7.52175 24.4961 7.62089 24.3101 7.79855L25.0007 8.52175ZM12.9814 19.9999L12.2897 20.722C12.676 21.0921 13.2852 21.0926 13.6721 20.7231L12.9814 19.9999ZM1.00011 8.52175L1.69189 7.79965C1.50574 7.62131 1.2579 7.52175 1.00011 7.52175V8.52175ZM1 8.52175L0.287579 7.82C0.00470994 8.10717 -0.0780888 8.5361 0.0775705 8.90792C0.23323 9.27974 0.59691 9.52175 1 9.52175L1 8.52175ZM1.00005 8.5217L1.71247 9.22345C1.90013 9.03294 2.00367 8.7752 1.99996 8.50781C1.99624 8.24042 1.88559 7.98566 1.69271 7.80043L1.00005 8.5217ZM1 8.52165V7.52165C0.591852 7.52165 0.224664 7.76969 0.072296 8.14833C-0.0800724 8.52697 0.0129608 8.96021 0.307345 9.24292L1 8.52165ZM1.0001 8.52165V9.52165C1.26833 9.52165 1.52531 9.41389 1.71332 9.22259L1.0001 8.52165ZM6.42666 3V2C6.15843 2 5.90145 2.10776 5.71343 2.29906L6.42666 3ZM19.4418 3L20.1465 2.29052C19.9592 2.10444 19.7059 2 19.4418 2V3ZM25.0007 8.52165L24.296 9.23113C24.4833 9.41721 24.7367 9.52165 25.0007 9.52165V8.52165ZM25.0008 8.52165L25.6882 9.24794C25.9856 8.96648 26.0814 8.53214 25.9299 8.15171C25.7784 7.77129 25.4103 7.52165 25.0008 7.52165V8.52165ZM25.0008 8.5217L24.3134 7.79541C24.1162 7.98207 24.0033 8.24091 24.0008 8.51245C23.9983 8.78399 24.1063 9.04487 24.3001 9.23515L25.0008 8.5217ZM25.0008 8.52175V9.52175C25.4069 9.52175 25.7727 9.27616 25.9264 8.90027C26.0801 8.52438 25.9913 8.09286 25.7015 7.8083L25.0008 8.52175ZM24.3101 7.79855L12.2908 19.2767L13.6721 20.7231L25.6914 9.24495L24.3101 7.79855ZM13.6732 19.2778L1.69189 7.79965L0.308325 9.24386L12.2897 20.722L13.6732 19.2778ZM1.00011 7.52175H1V9.52175H1.00011V7.52175ZM1.71242 9.2235L1.71247 9.22345L0.287631 7.81995L0.287579 7.82L1.71242 9.2235ZM1.69271 7.80043L1.69265 7.80038L0.307345 9.24292L0.307398 9.24297L1.69271 7.80043ZM1 9.52165H1.0001V7.52165H1V9.52165ZM1.71332 9.22259L7.13988 3.70094L5.71343 2.29906L0.286879 7.82071L1.71332 9.22259ZM6.42666 4H19.4418V2H6.42666V4ZM18.7371 3.70948L24.296 9.23113L25.7054 7.81217L20.1465 2.29052L18.7371 3.70948ZM25.0007 9.52165H25.0008V7.52165H25.0007V9.52165ZM24.3134 7.79536L24.3134 7.79541L25.6881 9.24799L25.6882 9.24794L24.3134 7.79536ZM24.3001 9.23515L24.3001 9.2352L25.7015 7.8083L25.7015 7.80825L24.3001 9.23515ZM25.0008 7.52175H25.0007V9.52175H25.0008V7.52175Z" fill="#FFF3D3" mask="url(#path-1-outside-1_2899_5185)"/>
</g>
<path d="M12.9814 20L1 8.52173H25.0008L12.9814 20Z" fill="#D8D8D8"/>
<path d="M13.0035 19.9566L6.73549 8.52175H19.2653L13.0035 19.9566ZM6.42666 3H19.4418L25.0008 8.52175H1L6.42666 3Z" fill="#B8B8B8"/>
<path opacity="0.8" d="M12.9972 3L19.2652 8.52175H6.73535L12.9972 3Z" fill="#D8D8D8"/>
<path opacity="0.7" d="M13.0034 8.52175L6.73535 3H19.2652L13.0034 8.52175Z" fill="#D8D8D8"/>
<path d="M14.7789 8.5326C15.588 8.5326 16.1777 8.60256 16.5482 8.74249C17.208 8.98254 17.6186 9.40207 17.7799 10.0011C17.9042 10.4812 17.9182 10.996 17.8218 11.5454C17.7224 12.1395 17.4826 12.7004 17.123 13.1802C16.6209 13.8603 15.9723 14.2702 15.1769 14.4099C14.7913 14.47 14.2186 14.5 13.459 14.5H8.5L8.60846 13.8773C8.72053 13.2344 9.3239 12.7165 9.9562 12.7165H13.3248C14.0452 12.7167 14.5361 12.6469 14.7973 12.507C15.18 12.2969 15.4076 11.9819 15.4799 11.5619C15.5649 11.0718 15.4244 10.7169 15.0583 10.4971C14.854 10.3672 14.5003 10.3022 13.9973 10.3022H12.1618C11.0462 10.3034 10.278 10.0989 9.85715 9.68864C9.59118 9.41945 9.40173 9.08261 9.30872 8.71355C9.20388 8.32357 9.19062 7.90354 9.26895 7.45348C9.38946 6.7536 9.70278 6.1138 10.2089 5.53407C10.7008 4.97509 11.3897 4.64542 12.2757 4.54506C12.577 4.51502 13.0188 4.5 13.601 4.5H18.5L18.3915 5.12271C18.2798 5.76374 17.6768 6.28315 17.0442 6.28315H13.7637C13.1007 6.29438 12.6565 6.32442 12.4312 6.37326C11.9677 6.48339 11.6864 6.8232 11.5874 7.39267C11.504 7.87253 11.6358 8.19255 11.9829 8.35275C12.2087 8.47265 12.6128 8.5326 13.1951 8.5326H14.7789Z" fill="#FFF3D3"/>
</svg>
