<?xml version="1.0" encoding="UTF-8"?><svg id="_图层_1" xmlns="http://www.w3.org/2000/svg" viewBox="0 0 199.48 241.77"><defs><style>.cls-1{fill:#fff;stroke-width:0px;}</style></defs><path class="cls-1" d="m147.28,91.12c0,3.05,1.04,5.9,3.13,8.55.52.66,1.16,1.38,1.92,2.15,2.27,2.31,5.61,5.13,9.99,8.45,7.35,5.42,12.8,11.11,16.34,17.08,3.55,5.98,5.32,12.83,5.32,20.55,0,13.82-4.57,24.57-13.72,32.26-9.15,7.69-21.92,11.53-38.29,11.53-6.85,0-13.33-.76-19.42-2.28-6.1-1.53-11.37-3.75-15.79-6.68l-5.48-3.01,5.48-7.22,12.32-16.22c1.82.74,3.71,1.42,5.65,2.07,6.76,2.24,12.88,3.36,18.35,3.36,4.61,0,8.09-.97,10.46-2.9,2.37-1.92,3.55-4.67,3.55-8.22,0-1.68-.38-3.25-1.12-4.72-.75-1.46-1.81-2.93-3.18-4.39-1.37-1.46-5.04-4.69-11.02-9.66-.88-.7-1.72-1.41-2.54-2.12l16.94-22.3h-20.62l29.5-55.95c1.39-.1,2.82-.14,4.26-.14,14.87,0,28.26,3.33,40.15,9.99l-12.61,27.74c-10.64-5.48-19.7-8.22-27.18-8.22-3.99,0-7.05.87-9.2,2.61-2.14,1.75-3.22,4.3-3.22,7.66Z"/><polygon class="cls-1" points="138.33 12.22 125.45 37.77 83.16 37.77 44.95 118.52 36.42 136.54 10.16 136.54 0 0 36.13 0 41.61 73.66 72.26 12.22 138.33 12.22"/><path class="cls-1" d="m145.27,47.35h-56.21l-38.22,80.75-8.53,18.02h23.41l-31.84,95.65,41.53-54.67,5.48-7.22,12.32-16.22,20.17-26.56,16.94-22.3h-20.62l29.5-55.95,6.07-11.51Zm-43.39,63.33l-6.84,12.97h17.45l-6.15,8.1-20.17,26.56-12.32,16.23-5.48,7.21-9.22,12.15,14.98-44.98,3.87-11.64h-21.71l2.56-5.4,35.82-75.69h35.95l-28.73,54.48Z"/></svg>