<svg xmlns="http://www.w3.org/2000/svg" xmlns:xlink="http://www.w3.org/1999/xlink" width="32" height="32" viewBox="0 0 32 32" fill="none"><g opacity="1"  transform="translate(0 0)  rotate(0)"><mask id="bg-mask-0" fill="white"><use xlink:href="#path_0"></use></mask><g mask="url(#bg-mask-0)" ><path id="路径 1" fill-rule="evenodd" style="fill:currentColor" opacity="1" d="M21.3453,17.7414c2.92,-0.03 6.56,-0.43 7.77,1.21c0.4,0.56 0.73,1.58 0.56,2.5c-0.51,3.13 -2.37,3.29 -6.03,3.24v3.96h-2.3zM27.4453,20.7814c-0.3,-1.37 -2.1,-1.19 -3.8,-1.13v3.18c1.91,0.06 4.29,0.25 3.8,-2.05zM16.9353,17.7914c0.78,-0.02 1.54,-0.02 2.29,-0.05v10.91h-2.24c-0.03,-3.61 -0.03,-7.25 -0.05,-10.86zM21.2753,3.19138h8.4c-8.48,8.49002 -16.94,16.95002 -25.42998,25.44002v-23.31002h-2.08c-0.02,-0.7 -0.02,-1.43 -0.05,-2.13h8.53998v10.56002c3.56,-3.53 7.08,-7.03002 10.62,-10.56002z"></path></g></g><defs><rect id="path_0" x="0" y="0" width="32" height="32" /></defs></svg>